# xmcd CD database file
#
# Track frame offsets:
#	150
#	18477
#	42997
#
# Disc length: 857 seconds
#
# Revision: 1
# Processed by: cddbd v1.5.2PL0 Copyright (c) Steve Scherf et al.
# Submitted via: CDex 1.70beta2
#
DISCID=1d035703
DTITLE=Theatre Brook - SOUL DIVER
DYEAR=1998
DGENRE=Rock
TTITLE0=SOUL DIVER
TTITLE1=足元
TTITLE2=悲しみは河の中に(LIVEVERSION)
EXTD=YEAR: 1998
EXTT0=
EXTT1=
EXTT2=
PLAYORDER=
